HIERARCHY
ROOT Hips
{
 OFFSET 0.000000 0.000000 0.000000
 CHANNELS 6 Xposition Yposition Zposition Yrotation Xrotation Zrotation
 JOINT Chest
 {
  OFFSET 0.000000 9.585900 0.002600
  CHANNELS 3 Yrotation Xrotation Zrotation
  JOINT Chest2
  {
   OFFSET 0.000000 9.601200 -0.005300
   CHANNELS 3 Yrotation Xrotation Zrotation
   JOINT Chest3
   {
    OFFSET 0.000000 9.561800 0.000000
    CHANNELS 3 Yrotation Xrotation Zrotation
    JOINT Chest4
    {
     OFFSET 0.000000 9.552100 0.000000
     CHANNELS 3 Yrotation Xrotation Zrotation
     JOINT Neck
     {
      OFFSET 0.000000 14.453000 0.000000
      CHANNELS 3 Yrotation Xrotation Zrotation
      JOINT Head
      {
       OFFSET 0.000000 8.936500 -0.011300
       CHANNELS 3 Yrotation Xrotation Zrotation
       End Site
       {
        OFFSET 0.000000 17.073600 -0.006000
       }
      }
     }
     JOINT RightCollar
     {
      OFFSET -2.921100 9.558500 0.000000
      CHANNELS 3 Yrotation Xrotation Zrotation
      JOINT RightShoulder
      {
       OFFSET -13.519700 0.000000 0.000000
       CHANNELS 3 Yrotation Xrotation Zrotation
       JOINT RightElbow
       {
        OFFSET 0.000000 -29.696600 0.000000
        CHANNELS 3 Yrotation Xrotation Zrotation
        JOINT RightWrist
        {
         OFFSET 0.000000 -24.004700 0.000000
         CHANNELS 3 Yrotation Xrotation Zrotation
         End Site
         {
          OFFSET 0.000000 -17.728500 0.000000
         }
        }
       }
      }
     }
     JOINT LeftCollar
     {
      OFFSET 2.921100 9.558500 0.000000
      CHANNELS 3 Yrotation Xrotation Zrotation
      JOINT LeftShoulder
      {
       OFFSET 13.519700 0.000000 0.000000
       CHANNELS 3 Yrotation Xrotation Zrotation
       JOINT LeftElbow
       {
        OFFSET 0.000000 -29.696600 0.000000
        CHANNELS 3 Yrotation Xrotation Zrotation
        JOINT LeftWrist
        {
         OFFSET 0.000000 -24.004700 0.000000
         CHANNELS 3 Yrotation Xrotation Zrotation
         End Site
         {
          OFFSET 0.000000 -17.728500 0.000000
         }
        }
       }
      }
     }
    }
   }
  }
 }
 JOINT RightHip
 {
  OFFSET -7.771700 -0.012900 -0.001300
  CHANNELS 3 Yrotation Xrotation Zrotation
  JOINT RightKnee
  {
   OFFSET 0.000000 -40.869800 0.001200
   CHANNELS 3 Yrotation Xrotation Zrotation
   JOINT RightAnkle
   {
    OFFSET 0.000000 -39.717900 0.002100
    CHANNELS 3 Yrotation Xrotation Zrotation
    JOINT RightToe
    {
     OFFSET 0.000000 -4.965400 11.033500
     CHANNELS 3 Yrotation Xrotation Zrotation
     End Site
     {
      OFFSET 0.000000 -1.423100 5.872300
     }
    }
   }
  }
 }
 JOINT LeftHip
 {
  OFFSET 7.771700 -0.012900 -0.001300
  CHANNELS 3 Yrotation Xrotation Zrotation
  JOINT LeftKnee
  {
   OFFSET 0.000000 -40.869800 0.001200
   CHANNELS 3 Yrotation Xrotation Zrotation
   JOINT LeftAnkle
   {
    OFFSET 0.000000 -39.717900 0.002100
    CHANNELS 3 Yrotation Xrotation Zrotation
    JOINT LeftToe
    {
     OFFSET 0.000000 -4.965400 11.033500
     CHANNELS 3 Yrotation Xrotation Zrotation
     End Site
     {
      OFFSET 0.000000 -1.423100 5.872300
     }
    }
   }
  }
 }
}
MOTION
Frames: 15
Frame Time: 0.008333
-239.000000 60.665149 -75.159573 159.562010 -17.467279 2.512363 3.241960 11.400999 0.524913 0.223117 0.812023 0.024651 0.393666 1.348362 0.044541 2.912184 10.462178 0.565838 0.200315 21.207978 -0.659585 0.364204 -3.160932 -0.749610 3.654990 4.544104 -3.125049 -2.638322 -11.699703 -4.303827 9.783719 -73.926583 1.412833 0.840372 1.089886 -37.620934 -4.750864 1.485637 -5.347716 17.377071 -3.288083 0.128079 9.704815 -75.431286 -24.922866 -5.302232 3.885332 12.198829 1.868228 -51.733080 0.639054 -22.648395 70.921776 -18.028180 -0.411559 -4.967546 -2.663875 0.040707 -0.130136 0.021078 14.622273 -51.203734 -3.603076 26.999183 66.376684 26.829887 -16.095872 -16.624711 1.122671 -0.001882 0.095184 0.020061
-238.995095 60.663915 -75.158780 159.563579 -17.464798 2.478002 3.241901 11.413282 0.557653 0.216949 0.831390 0.024410 0.394816 1.354592 0.044752 2.900254 10.481938 0.564498 0.212925 21.177918 -0.667060 0.368237 -3.160878 -0.754726 3.661919 4.487789 -3.169829 -2.499957 -11.643014 -4.322915 10.881535 -73.899877 0.251715 0.889247 1.105642 -37.636725 -4.720211 1.428595 -5.340537 17.355169 -3.237415 0.100825 9.656673 -75.480729 -24.831869 -5.251297 3.873219 12.366539 1.827555 -51.737405 0.693580 -22.657453 70.921425 -18.033571 -0.407268 -4.959113 -2.663807 0.035694 -0.135586 0.018008 14.584905 -51.215829 -3.564879 27.020811 66.375656 26.846810 -15.921730 -16.627790 1.122049 0.052976 0.102724 0.013265
-238.993991 60.662453 -75.157730 159.561077 -17.451123 2.468710 3.240314 11.415848 0.564775 0.212286 0.849436 0.025170 0.392326 1.362032 0.043279 2.893229 10.497913 0.565428 0.222743 21.153053 -0.675813 0.355798 -3.092933 -0.766469 3.673414 4.431152 -3.225173 -2.393212 -11.583053 -4.323340 12.061692 -73.849797 -0.954560 0.940844 1.113623 -37.654722 -4.695544 1.369794 -5.327918 17.324545 -3.189077 0.076501 9.647079 -75.515842 -24.765688 -5.198571 3.874767 12.536362 1.822165 -51.752315 0.709962 -22.673637 70.918348 -18.048099 -0.404296 -4.955901 -2.665410 0.033262 -0.134240 0.018778 14.578614 -51.233832 -3.553649 27.025894 66.378347 26.850805 -15.890823 -16.626146 1.118901 0.062776 0.106105 0.016631
-238.997290 60.661847 -75.159672 159.562446 -17.444353 2.491737 3.217835 11.464496 0.537147 0.221525 0.820758 0.024833 0.380631 1.403980 0.044253 2.901959 10.458671 0.561514 0.211594 21.195308 -0.683155 0.344238 -3.048967 -0.778142 3.679986 4.400901 -3.273535 -2.301970 -11.521389 -4.324598 13.288385 -73.770691 -2.182310 1.000113 1.110916 -37.669931 -4.684056 1.332959 -5.310060 17.281937 -3.128654 0.057759 9.546898 -75.462933 -24.548424 -5.152850 3.796119 12.663993 1.855069 -51.760351 0.671845 -22.672559 70.921935 -18.048181 -0.409259 -4.963038 -2.668932 0.038498 -0.126740 0.022460 14.606497 -51.236135 -3.581630 27.004284 66.385150 26.832556 -16.002166 -16.616003 1.116799 0.026554 0.102864 0.021995
-238.997274 60.661691 -75.161197 159.555885 -17.440301 2.499593 3.213912 11.497959 0.527468 0.228364 0.792288 0.026135 0.380490 1.404999 0.044275 2.895447 10.476083 0.561551 0.195429 21.241115 -0.691337 0.352372 -3.073787 -0.783750 3.695980 4.355696 -3.388604 -2.224516 -11.436538 -4.265717 14.504872 -73.666114 -3.395641 1.070549 1.096868 -37.682754 -4.677432 1.294434 -5.285039 17.230847 -3.060219 0.043345 9.507367 -75.437460 -24.434115 -5.095707 3.767155 12.835283 1.870915 -51.765262 0.662810 -22.638755 70.927706 -18.015738 -0.422818 -4.964379 -2.670000 0.038492 -0.126166 0.022935 14.622188 -51.240537 -3.584763 26.999247 66.398705 26.827931 -16.055704 -16.621065 1.119024 0.008388 0.104432 0.021122
-238.997067 60.661561 -75.161227 159.557081 -17.427029 2.502203 3.208675 11.506392 0.521810 0.225570 0.801219 0.025672 0.380416 1.408812 0.044131 2.890540 10.490136 0.560789 0.185519 21.263548 -0.698543 0.343700 -3.026319 -0.785119 3.717190 4.292419 -3.457557 -2.131242 -11.356181 -4.268238 15.684906 -73.535679 -4.563278 1.146447 1.071229 -37.699845 -4.667851 1.202149 -5.224317 17.169589 -2.947350 0.017390 9.472191 -75.391958 -24.324815 -5.039730 3.735240 13.000437 1.876492 -51.779678 0.657609 -22.634016 70.929513 -18.009605 -0.425868 -4.962821 -2.671562 0.040206 -0.127056 0.022220 14.628065 -51.256427 -3.585354 26.989425 66.407536 26.815424 -16.100696 -16.618554 1.122409 -0.003781 0.103690 0.018434
-238.997276 60.661643 -75.160186 159.557310 -17.405999 2.505884 3.207258 11.492847 0.516232 0.221862 0.824593 0.024622 0.380246 1.411372 0.044179 2.886272 10.500041 0.559502 0.178504 21.287498 -0.702342 0.338973 -2.979629 -0.779375 3.736391 4.229197 -3.529060 -2.031281 -11.269601 -4.283642 16.843189 -73.380655 -5.692950 1.218783 1.028356 -37.729672 -4.663274 1.123479 -5.176785 17.090945 -2.844777 0.013598 9.439349 -75.329062 -24.218726 -4.985805 3.702312 13.152612 1.882011 -51.801170 0.652057 -22.633274 70.928797 -18.009178 -0.421447 -4.957667 -2.671897 0.038830 -0.129342 0.020574 14.638383 -51.276634 -3.592536 26.978919 66.412304 26.803067 -16.135793 -16.619347 1.125740 -0.017635 0.105681 0.013378
-238.993279 60.662836 -75.160047 159.555853 -17.399350 2.488386 3.205913 11.514359 0.527839 0.221861 0.825972 0.024548 0.376214 1.442191 0.039639 2.881242 10.530131 0.551640 0.179627 21.325296 -0.687311 0.348587 -3.024606 -0.774925 3.764539 4.107031 -3.593319 -1.923375 -11.173997 -4.315823 17.983083 -73.196348 -6.786427 1.289198 0.968117 -37.784524 -4.658531 1.007903 -5.120434 17.000774 -2.758569 0.024129 9.387952 -75.251139 -24.097597 -4.934427 3.671252 13.287766 1.859744 -51.806634 0.681497 -22.614431 70.929231 -17.986867 -0.423407 -4.950362 -2.672962 0.038213 -0.132798 0.015823 14.618636 -51.287957 -3.566660 26.971889 66.418745 26.793199 -16.063150 -16.625936 1.125885 0.008252 0.108181 0.009348
-238.990279 60.663738 -75.157628 159.554405 -17.378204 2.471031 3.200708 11.559139 0.530588 0.227882 0.794304 0.030761 0.380445 1.416580 0.043434 2.877564 10.572478 0.540453 0.183602 21.337528 -0.671401 0.349187 -3.010516 -0.758928 3.775953 4.036156 -3.620298 -1.795231 -11.096480 -4.404184 19.088237 -72.975657 -7.817253 1.357149 0.895358 -37.879441 -4.661413 0.945627 -5.085385 16.886096 -2.696861 0.060291 9.307583 -75.160930 -23.948922 -4.889459 3.641714 13.407503 1.837873 -51.825866 0.712662 -22.639116 70.919409 -18.011203 -0.408367 -4.942343 -2.666834 0.032803 -0.135976 0.008623 14.602349 -51.313158 -3.548480 26.953987 66.419057 26.781123 -15.997942 -16.627109 1.115268 0.082370 0.110138 0.019912
-238.987031 60.665034 -75.155382 159.547247 -17.360249 2.452889 3.209717 11.556940 0.546156 0.224718 0.813720 0.027562 0.381053 1.420371 0.042393 2.881253 10.584230 0.528707 0.190807 21.346876 -0.648283 0.351630 -2.999834 -0.735933 3.785947 3.960225 -3.642208 -1.656287 -11.020810 -4.517197 20.165208 -72.712688 -8.779379 1.411241 0.808128 -38.017045 -4.684428 0.872836 -5.021248 16.773549 -2.623187 0.092136 9.207722 -75.062007 -23.778817 -4.852088 3.610863 13.513295 1.816600 -51.839848 0.747403 -22.643720 70.908302 -18.013566 -0.398283 -4.934991 -2.664939 0.026999 -0.135431 0.003701 14.585181 -51.334741 -3.525388 26.967620 66.416832 26.788227 -15.910326 -16.630070 1.122576 0.070304 0.112037 0.008006
-238.988690 60.666523 -75.154499 159.542168 -17.342676 2.462227 3.211438 11.556344 0.532703 0.223078 0.832101 0.022956 0.382011 1.424037 0.041417 2.884619 10.596058 0.511545 0.203208 21.354570 -0.615881 0.351798 -3.023717 -0.725277 3.801404 3.845757 -3.687493 -1.518627 -10.911438 -4.623937 21.234761 -72.399701 -9.696644 1.451738 0.700980 -38.169464 -4.709010 0.804354 -4.955278 16.648735 -2.557015 0.148798 9.084842 -74.957115 -23.590944 -4.821871 3.574797 13.605788 1.831642 -51.854918 0.733723 -22.641700 70.902780 -18.009875 -0.396775 -4.933832 -2.665754 0.029818 -0.131034 0.004671 14.598273 -51.348857 -3.539183 26.969932 66.414152 26.793013 -15.964013 -16.625553 1.123193 0.051111 0.109157 0.008670
-238.991536 60.667751 -75.153438 159.539231 -17.324912 2.474284 3.207046 11.589554 0.494079 0.225394 0.818167 0.031392 0.383110 1.426923 0.039964 2.891558 10.607614 0.496248 0.220963 21.360249 -0.575239 0.349201 -3.047676 -0.711192 3.807988 3.653687 -3.772643 -1.372103 -10.733682 -4.706298 22.337817 -72.027292 -10.620715 1.492949 0.576185 -38.295424 -4.720278 0.747801 -4.905585 16.500546 -2.512720 0.243779 8.911550 -74.853568 -23.365300 -4.798820 3.534429 13.685592 1.847877 -51.868057 0.712616 -22.626107 70.898235 -17.993150 -0.394084 -4.939743 -2.666188 0.028028 -0.121856 0.005110 14.613109 -51.363158 -3.561190 26.930253 66.417227 26.770637 -16.041582 -16.618930 1.113289 0.023323 0.105401 0.010825
-238.992994 60.668529 -75.151908 159.536730 -17.311150 2.474003 3.208778 11.591616 0.484792 0.226916 0.863504 0.004129 0.382551 1.402929 0.055296 2.897738 10.595777 0.498530 0.238107 21.391279 -0.548783 0.354427 -3.041650 -0.670242 3.803966 3.511764 -3.837186 -1.207388 -10.592114 -4.839703 23.530084 -71.590797 -11.616286 1.554231 0.442350 -38.356350 -4.731795 0.714979 -4.873252 16.349338 -2.472394 0.355710 8.665361 -74.759718 -23.080327 -4.782900 3.491844 13.752437 1.849988 -51.880941 0.713430 -22.626694 70.895552 -17.993128 -0.396091 -4.941682 -2.664786 0.025398 -0.118269 0.005942 14.613532 -51.377220 -3.568740 26.921869 66.417042 26.770025 -16.057216 -16.617722 1.110690 0.018647 0.105011 0.008836
-238.993837 60.667918 -75.147488 159.532245 -17.285700 2.461169 3.218197 11.600307 0.475993 0.231055 0.872487 -0.002557 0.381152 1.400217 0.059074 2.906382 10.622678 0.476081 0.266233 21.377102 -0.488372 0.387665 -2.996408 -0.585150 3.784822 3.337834 -3.859836 -1.025214 -10.478398 -5.005839 24.873506 -71.092591 -12.747425 1.657569 0.313090 -38.311020 -4.763133 0.633196 -4.799173 16.216760 -2.424269 0.475280 8.338645 -74.677585 -22.729667 -4.775483 3.442122 13.809458 1.833485 -51.905853 0.734675 -22.625245 70.886867 -17.987768 -0.388875 -4.933070 -2.668170 0.024546 -0.118982 0.004605 14.605519 -51.406832 -3.560446 26.927725 66.415974 26.778005 -16.055404 -16.622695 1.112633 0.022881 0.110304 0.006157
-238.993800 60.667173 -75.144667 159.533791 -17.275987 2.441249 3.229828 11.649295 0.453157 0.227095 0.843755 0.018080 0.388698 1.443210 0.033068 2.909641 10.611683 0.477987 0.297868 21.361147 -0.425684 0.415193 -2.984547 -0.522535 3.761970 3.162436 -3.883776 -0.830561 -10.377908 -5.188017 26.408750 -70.532698 -14.048062 1.825967 0.210773 -38.121802 -4.829081 0.539288 -4.717154 16.127062 -2.363067 0.601009 7.918694 -74.604104 -22.301810 -4.775415 3.382320 13.862745 1.802154 -51.913892 0.763278 -22.618483 70.880015 -17.976038 -0.378300 -4.925186 -2.670418 0.021190 -0.120674 0.002007 14.579165 -51.423535 -3.539142 26.943692 66.413749 26.794282 -16.023655 -16.628307 1.114122 0.042546 0.115353 0.005265
